<svg width="141" height="45" viewBox="0 0 141 45" fill="none" xmlns="http://www.w3.org/2000/svg">
<path d="M74.1167 11.4278C74.1167 13.0023 72.8483 14.2706 71.2733 14.2706C69.699 14.2706 68.4307 13.0023 68.4307 11.4278C68.4307 9.85326 69.6553 8.58493 71.2733 8.58493C72.8917 8.62868 74.1167 9.89701 74.1167 11.4278ZM62.3951 17.1572C62.3951 17.4196 62.3951 17.857 62.3951 17.857C62.3951 17.857 61.0393 16.1076 58.1527 16.1076C53.3854 16.1076 49.6678 19.7377 49.6678 24.7673C49.6678 29.7533 53.3416 33.4272 58.1527 33.4272C61.083 33.4272 62.3951 31.634 62.3951 31.634V32.3775C62.3951 32.7274 62.6575 32.9898 63.0074 32.9898H66.55V16.5449C66.55 16.5449 63.3136 16.5449 63.0074 16.5449C62.6575 16.5449 62.3951 16.8511 62.3951 17.1572ZM62.3951 27.6977C61.7391 28.6599 60.427 29.4909 58.8525 29.4909C56.0533 29.4909 53.9103 27.7414 53.9103 24.7673C53.9103 21.7933 56.0533 20.0439 58.8525 20.0439C60.3832 20.0439 61.7828 20.9186 62.3951 21.8371V27.6977ZM69.1742 16.5449H73.3726V32.9898H69.1742V16.5449ZM131.892 16.1076C129.006 16.1076 127.65 17.857 127.65 17.857V8.62868H123.451V32.9898C123.451 32.9898 126.687 32.9898 126.993 32.9898C127.343 32.9898 127.606 32.6836 127.606 32.3775V31.634C127.606 31.634 128.962 33.4272 131.849 33.4272C136.616 33.4272 140.333 29.7533 140.333 24.7673C140.333 19.7814 136.616 16.1076 131.892 16.1076ZM131.193 29.4472C129.574 29.4472 128.306 28.6161 127.65 27.654V21.7933C128.306 20.9186 129.705 20.0001 131.193 20.0001C133.991 20.0001 136.135 21.7496 136.135 24.7236C136.135 27.6977 133.991 29.4472 131.193 29.4472ZM121.265 23.2366V33.0336H117.065V23.7177C117.065 21.006 116.191 19.9126 113.829 19.9126C112.561 19.9126 111.248 20.5687 110.417 21.5309V32.9898H106.219V16.5449H109.543C109.893 16.5449 110.155 16.8511 110.155 17.1572V17.857C111.38 16.5887 112.998 16.1076 114.616 16.1076C116.453 16.1076 117.984 16.6324 119.209 17.6821C120.695 18.9067 121.265 20.4812 121.265 23.2366ZM96.0281 16.1076C93.142 16.1076 91.7861 17.857 91.7861 17.857V8.62868H87.5875V32.9898C87.5875 32.9898 90.8236 32.9898 91.1295 32.9898C91.4795 32.9898 91.742 32.6836 91.742 32.3775V31.634C91.742 31.634 93.0979 33.4272 95.9847 33.4272C100.752 33.4272 104.469 29.7533 104.469 24.7673C104.513 19.7814 100.796 16.1076 96.0281 16.1076ZM95.3288 29.4472C93.7104 29.4472 92.442 28.6161 91.7861 27.654V21.7933C92.442 20.9186 93.8413 20.0001 95.3288 20.0001C98.1274 20.0001 100.271 21.7496 100.271 24.7236C100.271 27.6977 98.1274 29.4472 95.3288 29.4472ZM83.9573 16.1076C85.2257 16.1076 85.8816 16.3262 85.8816 16.3262V20.2188C85.8816 20.2188 82.3823 19.0379 80.1955 21.5309V33.0336H75.9969V16.5449C75.9969 16.5449 79.2337 16.5449 79.5396 16.5449C79.8896 16.5449 80.1521 16.8511 80.1521 17.1572V17.857C80.9396 16.9385 82.6448 16.1076 83.9573 16.1076ZM40.352 31.5027C40.1333 30.9779 39.9146 30.4093 39.6959 29.9282C39.3461 29.141 38.9961 28.3975 38.69 27.6977L38.6463 27.654C35.6284 21.0935 32.392 14.4456 28.9805 7.88514L28.8493 7.62271C28.4994 6.96666 28.1496 6.26688 27.7996 5.5671C27.3623 4.77985 26.9249 3.94886 26.2251 3.1616C24.8256 1.41215 22.8137 0.449951 20.6706 0.449951C18.4838 0.449951 16.5157 1.41215 15.0724 3.07413C14.4163 3.86139 13.9352 4.69238 13.4979 5.47963C13.148 6.17941 12.7981 6.87919 12.4482 7.53521L12.317 7.79764C8.94933 14.3581 5.66907 21.006 2.65126 27.5665L2.60752 27.654C2.30137 28.3538 1.95148 29.0972 1.60159 29.8845C1.38291 30.3656 1.16423 30.8904 0.945543 31.459C0.376971 33.0772 0.202025 34.6081 0.420707 36.1826C0.901807 39.4628 3.08862 42.2182 6.10643 43.4428C7.24357 43.9239 8.42447 44.1426 9.64904 44.1426C9.99898 44.1426 10.4363 44.0988 10.7862 44.055C12.2295 43.8801 13.7165 43.399 15.1599 42.568C16.9531 41.5621 18.6587 40.1188 20.5832 38.0194C22.5076 40.1188 24.257 41.5621 26.0064 42.568C27.4498 43.399 28.9368 43.8801 30.3801 44.055C30.73 44.0988 31.1673 44.1426 31.5173 44.1426C32.7418 44.1426 33.9665 43.9239 35.0599 43.4428C38.1214 42.2182 40.2645 39.419 40.7456 36.1826C41.0955 34.6517 40.9206 33.121 40.352 31.5027ZM20.6269 33.777C18.2651 30.803 16.7344 28.0038 16.2095 25.6421C15.9908 24.6361 15.9471 23.7614 16.0783 22.9742C16.1658 22.2744 16.4282 21.6621 16.7781 21.1373C17.6091 19.9564 19.0087 19.2128 20.6269 19.2128C22.2451 19.2128 23.6885 19.9126 24.4757 21.1373C24.8256 21.6621 25.088 22.2744 25.1755 22.9742C25.3067 23.7614 25.263 24.6799 25.0443 25.6421C24.5194 27.9601 22.9887 30.7593 20.6269 33.777ZM38.0777 35.8326C37.7715 38.1069 36.2408 40.0751 34.0977 40.9498C33.048 41.3871 31.9109 41.5184 30.7737 41.3871C29.6803 41.256 28.5869 40.906 27.4498 40.25C25.8753 39.3753 24.3007 38.0194 22.4638 36.0076C25.3504 32.4649 27.0999 29.2285 27.7559 26.3418C28.0621 24.9861 28.1058 23.7614 27.9746 22.6243C27.7996 21.5309 27.406 20.5249 26.7937 19.6502C25.4379 17.6821 23.1636 16.5449 20.6269 16.5449C18.0902 16.5449 15.8159 17.7258 14.4601 19.6502C13.8478 20.5249 13.4541 21.5309 13.2792 22.6243C13.1042 23.7614 13.148 25.0298 13.4979 26.3418C14.1539 29.2285 15.9471 32.5087 18.79 36.0513C16.9968 38.0632 15.3785 39.419 13.804 40.2937C12.6669 40.9498 11.5735 41.2997 10.4801 41.4309C9.29918 41.5621 8.16204 41.3871 7.1561 40.9935C5.01302 40.1188 3.48225 38.1507 3.1761 35.8764C3.04489 34.783 3.13236 33.6896 3.56972 32.4649C3.70093 32.0276 3.91962 31.5902 4.1383 31.0654C4.44445 30.3656 4.79434 29.6221 5.14423 28.8786L5.18797 28.7911C8.20579 22.2744 11.4422 15.6264 14.8099 9.15347L14.9412 8.89104C15.291 8.235 15.641 7.53521 15.9908 6.87919C16.3408 6.17941 16.7344 5.52337 17.2155 4.95479C18.134 3.90512 19.3585 3.33655 20.7144 3.33655C22.0702 3.33655 23.2948 3.90512 24.2132 4.95479C24.6944 5.52337 25.088 6.17941 25.4379 6.87919C25.7878 7.53521 26.1377 8.235 26.4875 8.89104L26.6188 9.15347C29.9427 15.6702 33.1792 22.3181 36.197 28.8348V28.8786C36.5469 29.5784 36.8531 30.3656 37.2029 31.0654C37.4216 31.5902 37.6403 32.0276 37.7715 32.4649C38.1214 33.6021 38.2527 34.6955 38.0777 35.8326Z" fill="black"/>
</svg>
