<svg width="62" height="61" viewBox="0 0 62 61" fill="none" xmlns="http://www.w3.org/2000/svg">
<rect width="62" height="61" rx="15.8298" fill="url(#paint0_linear_1_3256)"/>
<path fill-rule="evenodd" clip-rule="evenodd" d="M31.6379 13.4529C31.219 13.3668 30.7868 13.3668 30.3678 13.4529C29.8835 13.5525 29.4506 13.795 29.1065 13.9878L29.0127 14.0402L17.3489 20.52C17.3167 20.5379 17.2835 20.5562 17.2494 20.575C16.8851 20.7757 16.427 21.028 16.0753 21.4097C15.7712 21.7397 15.541 22.1308 15.4002 22.557C15.2374 23.0498 15.2393 23.5728 15.2408 23.9887C15.2409 24.0276 15.2411 24.0655 15.2411 24.1024V36.8964C15.2411 36.9333 15.2409 36.9713 15.2408 37.0101C15.2393 37.426 15.2374 37.949 15.4002 38.4419C15.541 38.868 15.7712 39.2591 16.0753 39.5892C16.427 39.9709 16.8851 40.2232 17.2494 40.4238C17.2835 40.4426 17.3167 40.4609 17.3489 40.4788L29.0127 46.9587L29.1065 47.0111C29.4507 47.2038 29.8835 47.4463 30.3678 47.5459C30.7868 47.632 31.219 47.632 31.6379 47.5459C32.1223 47.4463 32.5551 47.2038 32.8993 47.0111L32.9931 46.9587L44.6568 40.4788C44.6711 40.4709 44.6855 40.4629 44.7002 40.4548C44.7186 40.4446 44.7374 40.4343 44.7564 40.4238C45.1207 40.2232 45.5787 39.9709 45.9305 39.5892C46.2346 39.2591 46.4648 38.868 46.6056 38.4419C46.7684 37.949 46.7665 37.426 46.765 37.0101C46.7649 36.9712 46.7647 36.9333 46.7647 36.8964V24.1024C46.7647 24.0655 46.7649 24.0276 46.765 23.9887C46.7665 23.5728 46.7684 23.0498 46.6056 22.557C46.4648 22.1308 46.2346 21.7397 45.9305 21.4097C45.5787 21.0279 45.1207 20.7756 44.7564 20.575L44.7551 20.5743C44.7215 20.5558 44.6887 20.5377 44.6568 20.52L32.9931 14.0402L32.8993 13.9878C32.5551 13.795 32.1223 13.5525 31.6379 13.4529ZM30.5436 16.7958C30.7825 16.6631 30.9044 16.5961 30.9954 16.5522L31.0029 16.5486L31.0104 16.5522C31.1014 16.5961 31.2233 16.6631 31.4622 16.7958L41.9429 22.6185L31.0028 28.6963L20.0628 22.6185L30.5436 16.7958ZM18.3934 25.2972L29.4267 31.4268L29.4267 43.5825L18.8799 37.7231C18.6277 37.5831 18.499 37.5108 18.4087 37.4533L18.4011 37.4484L18.4005 37.4393C18.3941 37.3325 18.3934 37.1848 18.3934 36.8964V25.2972Z" fill="white"/>
<defs>
<linearGradient id="paint0_linear_1_3256" x1="36.1944" y1="86.3894" x2="-24.7976" y2="24.3976" gradientUnits="userSpaceOnUse">
<stop stop-color="#FB432C"/>
<stop offset="1" stop-color="#FF591E"/>
</linearGradient>
</defs>
</svg>
