<svg width="161" height="41" viewBox="0 0 161 41" fill="none" xmlns="http://www.w3.org/2000/svg">
<g clip-path="url(#clip0_1_2732)">
<path fill-rule="evenodd" clip-rule="evenodd" d="M28.5079 33.2184C26.1018 35.6245 22.4184 35.6245 15.7898 35.6245C9.16251 35.6245 5.47905 35.6231 3.07152 33.2184C0.666748 30.8121 0.666748 27.1274 0.666748 20.5001C0.666748 13.8743 0.666748 10.188 3.07152 7.78325C5.47905 5.37573 9.16251 5.37573 15.7898 5.37573C22.4184 5.37573 26.1018 5.37573 28.5079 7.78325C30.9155 10.1894 30.9155 13.8728 30.9155 20.5001C30.9155 27.1274 30.9155 30.8121 28.5079 33.2184ZM17.2362 18.5573L8.10656 18.5394L8.10519 20.7875L16.722 20.804L16.2146 23.0479L8.10519 23.0314V25.2781L15.7072 25.2945H15.6949C15.4007 26.4275 16.2297 27.5509 17.3682 27.5509H18.9466L19.8184 25.2945H15.7072L16.2146 23.0506L21.3817 23.0603L22.1832 20.8136L16.733 20.804L17.2431 18.5573L24.621 18.5216L25.5354 16.2845L17.7532 16.3107L17.2362 18.5573ZM16.4236 14.0558L8.10656 14.0379L8.10519 16.2859L17.7518 16.3025L17.8384 15.9106C18.0543 14.9646 17.3641 14.0558 16.4236 14.0558Z" fill="black"/>
<path d="M54.4371 29.2438H58.3035L58.6774 26.9318H59.3806C59.9429 28.6312 61.4652 29.4795 63.0362 29.4795C66.2914 29.4795 68.2838 27.3573 68.2838 22.8297C68.2838 18.8434 66.643 16.1799 63.1283 16.1799C61.4428 16.1799 59.9429 17.1928 59.3806 18.7011H58.6774L58.9118 15.1641V11.5559H54.4371V29.2438ZM58.9118 23.2301V22.4516C58.9118 20.7996 59.8257 19.7866 61.4191 19.7866C62.8018 19.7866 63.7381 20.4005 63.7381 21.98V23.7017C63.7381 24.9994 63.106 25.8714 61.4415 25.8714C59.7797 25.8714 58.9118 24.8571 58.9118 23.2301ZM69.4544 22.852C69.4544 26.8383 72.0553 29.4795 76.0136 29.4795C79.2953 29.4795 81.7064 27.7341 82.0359 25.0468H77.7717C77.6545 25.7765 76.9052 26.2007 75.8741 26.2007C74.8193 26.2007 73.9514 25.5421 73.9514 24.5501V23.8901H81.895C82.0359 23.3962 82.0813 22.7111 82.0813 22.0512C82.0813 18.2309 79.3414 16.1784 75.8741 16.1784C72.266 16.1784 69.4544 18.5839 69.4544 22.852ZM73.9514 21.2014V20.9433C73.9514 20.0936 74.7481 19.4796 75.8267 19.4796C76.9052 19.4796 77.6085 20.0936 77.6085 20.9433V21.2014H73.9514ZM92.5139 16.3431C91.0851 16.3431 89.9834 17.1691 89.6316 19.2201H88.9287L88.3898 16.4142H82.5088V20.0224H84.455V29.2438H88.9295V24.0087C88.9295 21.32 90.5931 20.5651 92.4893 20.5651C92.7488 20.5651 93.0067 20.5889 93.2869 20.6126V16.4142C93.0329 16.3626 92.7734 16.3389 92.5139 16.3431ZM94.4761 16.4142V33.1826H98.9506V30.4939L98.7157 26.9555H99.4194C99.9814 28.4652 101.482 29.4795 103.169 29.4795C106.682 29.4795 108.323 26.8146 108.323 22.8297C108.323 18.3021 106.33 16.1799 103.073 16.1799C101.505 16.1799 99.9814 17.0282 99.4194 18.7248H98.7157L98.3408 16.4142H94.4761ZM98.9506 22.4278C98.9506 20.801 99.8182 19.788 101.482 19.788C103.145 19.788 103.777 20.66 103.777 21.9563V23.678C103.777 25.2589 102.841 25.8714 101.458 25.8714C99.8644 25.8714 98.9506 24.8571 98.9506 23.2064V22.4278ZM113.88 25.7542V11.5559H109.428V25.8253C109.428 27.8764 110.249 29.2452 112.825 29.2452H116.785V25.7556H113.88V25.7542ZM117.608 25.6342C117.608 27.9936 119.318 29.4795 121.942 29.4795C124.12 29.4795 125.643 28.4652 126.136 26.9555H126.767V29.2438H131.454V25.9412H129.836V20.8261C129.836 18.0439 128.244 16.1799 124.167 16.1799C120.418 16.1799 118.241 17.8067 118.38 20.967H122.48C122.409 19.9053 123.043 19.5522 123.957 19.5522C124.823 19.5522 125.384 19.9052 125.384 20.8024V21.6981L121.825 21.9339C119.318 22.1 117.607 23.2776 117.607 25.637L117.608 25.6342ZM122.105 25.0231C122.105 24.5277 122.458 24.0562 123.255 24.0087L125.386 23.8664V25.3523C125.034 25.8951 124.331 26.2481 123.464 26.2481C122.526 26.2481 122.107 25.8477 122.107 25.3049L122.105 25.0231ZM132.811 29.2438H137.287V22.3804C137.287 20.8722 138.036 19.8104 139.535 19.8104C140.801 19.8104 141.503 20.5414 141.503 22.1223V29.2438H146V20.5414C146 17.924 144.573 16.1784 142.018 16.1784C140.051 16.1784 138.645 17.0979 137.989 18.7011H137.287L136.747 16.4142H132.811V29.2438ZM147.438 22.852C147.438 26.8383 150.04 29.4795 153.999 29.4795C157.278 29.4795 159.692 27.7341 160.02 25.0468H155.756C155.639 25.7765 154.89 26.2007 153.858 26.2007C152.804 26.2007 151.938 25.5421 151.938 24.5501V23.8901H159.88C160.02 23.3962 160.067 22.7111 160.067 22.0512C160.067 18.2309 157.326 16.1784 153.858 16.1784C150.251 16.1784 147.438 18.5839 147.438 22.852ZM151.938 21.2014V20.9433C151.938 20.0936 152.734 19.4796 153.811 19.4796C154.89 19.4796 155.593 20.0936 155.593 20.9433V21.2014H151.938ZM44.1024 16.4157H52.933V29.2438H48.4375V20.021H44.1024V29.2424H39.6054V20.021H37.2837V16.4157H39.6054V15.3105C39.6054 15.012 39.6096 14.793 39.6166 14.6548C39.6249 14.5097 39.6487 14.3297 39.6863 14.1134C39.731 13.8986 39.8008 13.6684 39.8915 13.4228C40.3422 12.1768 41.4904 11.5573 43.335 11.5573H46.9836V15.0455H44.1024V16.4157ZM48.4598 15.0455V11.5559H52.933V15.0455H48.4598Z" fill="black"/>
</g>
<defs>
<clipPath id="clip0_1_2732">
<rect width="160" height="40" fill="white" transform="translate(0.666748 0.5)"/>
</clipPath>
</defs>
</svg>
