<svg width="121" height="32" viewBox="0 0 121 32" fill="none" xmlns="http://www.w3.org/2000/svg">
<path d="M0.333252 18.1756C0.333252 9.37579 7.26391 3.10167 17.1205 3.10167C20.0459 3.10167 23.2388 3.64664 25.03 4.45904V9.95443H24.8295L17.9767 5.04874C17.623 4.92609 16.8853 4.84679 16.1859 4.84679C11.0017 4.84679 7.34137 9.67639 7.34137 16.3401C7.34137 23.7826 11.9026 29.5781 17.6986 29.5781C18.0912 29.5716 18.4825 29.5307 18.8679 29.4559L18.7563 29.4098V17.052L16.9988 14.9049V14.7048H27.2436V14.9049L25.486 17.052V31.4251H25.2859L20.8468 30.0567C19.134 30.9133 16.4861 31.5363 14.1056 31.5363C5.94022 31.5363 0.333252 26.1183 0.333252 18.1756ZM31.9828 14.4042L29.9136 12.3354V12.1777L37.2781 10.2324H37.6672L37.9438 14.4042H38.1771C39.8572 11.445 41.3368 10.2324 43.2055 10.2324C43.9842 10.2324 44.6518 10.4662 44.9967 10.7779V17.0852H44.7966L40.8605 14.4369C40.7435 14.4123 40.6241 14.401 40.5046 14.4032C39.6927 14.4032 38.5243 15.1819 38.1352 16.1165V28.8879L40.1925 30.7584V30.9585H30.2252V30.7584L31.9828 28.8893V14.4042ZM46.6671 30.9465V30.7907L48.4247 28.8773V14.4042L46.3559 12.3796V12.1777L54.1875 10.2306H54.5766V28.8883L56.3347 30.8017V30.9576H46.6671V30.9465ZM48.1453 4.04731C48.1453 2.13391 49.4362 0.965576 51.494 0.965576C53.5517 0.965576 54.8422 2.13391 54.8422 4.04731C54.8422 5.91645 53.5632 7.08433 51.494 7.08433C49.4247 7.08433 48.1453 5.91645 48.1453 4.04731ZM59.1937 30.9465V30.7464L60.9513 28.8773V13.0362H58.1812V12.8803L60.9843 10.4662C61.8411 4.81498 65.3121 0.965576 69.5505 0.965576C70.6071 0.965576 71.8557 1.19933 72.3537 1.47735L71.7309 6.58361H71.5305L65.9577 4.12523C64.7451 4.24741 63.6981 6.22766 63.6981 8.01889C63.6981 10.3215 65.4561 11.6009 68.4471 11.6009H73.6311C73.9431 5.60708 77.2911 0.965576 81.4629 0.965576C82.4421 0.965576 83.6103 1.19933 84.1551 1.47735L83.4879 6.53935H83.2875L78.3387 4.2013C77.2041 4.31242 76.3143 5.99206 76.3143 7.82803C76.3143 10.3177 77.9499 11.6087 81.1095 11.6087H93.0243L92.7117 13.8375V28.9603L94.4697 30.7958V30.9516H84.7803V30.7958L86.5713 28.8823V13.0362H79.7517V28.8883L82.0881 30.7584V30.9585H71.8065V30.7584L73.5975 28.845V13.0362H67.0923V28.8883L69.4281 30.7584V30.9585H59.1928L59.1937 30.9465ZM86.3043 4.04731C86.3043 2.13391 87.5835 0.965576 89.6529 0.965576C91.7553 0.965576 93.0459 2.13391 93.0459 4.04731C93.0459 5.91645 91.7547 7.08433 89.6529 7.08433C87.5835 7.08433 86.3043 5.91645 86.3043 4.04731ZM105.261 28.8883L107.018 30.7584V30.9585H97.3509V30.7584L99.1089 28.8893V14.412L97.0395 12.3432V12.1426L104.404 10.2292H104.793L105.07 13.8891H105.337C107.472 11.4307 109.775 10.2292 112.345 10.2292C115.816 10.2292 118.23 12.4884 118.23 15.6804V28.8852L119.988 30.7543V30.9544H110.287V30.7543L112.078 28.7629V16.9049C112.078 14.9915 110.91 13.8237 109.041 13.8237C107.796 13.8237 106.551 14.3239 105.26 15.3364L105.261 28.8883Z" fill="black"/>
</svg>
