<svg width="120" height="46" viewBox="0 0 120 46" fill="none" xmlns="http://www.w3.org/2000/svg">
<path fill-rule="evenodd" clip-rule="evenodd" d="M63.0837 15.8519C62.0802 15.0079 60.3676 14.5864 57.9448 14.5864H52.4802V31.4737H56.5663V26.181H58.3967C60.6182 26.181 62.2473 25.6921 63.284 24.7133C64.4518 23.6167 65.0394 22.1566 65.0394 20.3338C65.0394 18.4437 64.3873 16.9494 63.0837 15.8519ZM58.2951 22.3598H56.5663V18.4076H58.1195C60.0087 18.4076 60.9534 19.0703 60.9534 20.3956C60.9534 21.7038 60.0667 22.3598 58.2951 22.3598ZM72.0316 14.5854H67.7707V31.4728H76.9703V27.6506H72.0316V14.5854ZM85.3179 14.5854L78.6253 31.4728H83.2126L84.0898 29.0177H89.9053L90.7073 31.4728H95.3463L88.7007 14.5854H85.3179ZM85.2678 25.599L87.023 19.8269L88.7508 25.599H85.2678Z" fill="black"/>
<path fill-rule="evenodd" clip-rule="evenodd" d="M97.4743 31.4729H101.737V14.5856H97.4743V31.4729ZM118.282 17.7507C117.744 16.9702 117.053 16.3072 116.25 15.8017C114.964 14.991 113.209 14.5865 110.986 14.5865H105.371V31.4729H111.939C114.312 31.4729 116.217 30.6973 117.654 29.1441C119.092 27.5919 119.809 25.5318 119.809 22.9657C119.809 20.9245 119.301 19.1862 118.282 17.7507ZM111.463 27.6498H109.633V18.4087H111.488C112.792 18.4087 113.794 18.8169 114.496 19.6305C115.199 20.4441 115.549 21.5986 115.549 23.0929C115.549 26.1308 114.187 27.6498 111.463 27.6498ZM17.8833 0.407715L4.07286 4.0248L0.26684 17.9131L5.02697 22.8005L0.189941 27.6071L3.77191 41.5562L17.5225 45.3982L22.3605 40.5906L27.1206 45.477L40.9311 41.86L44.7362 27.9707L39.977 23.0853L44.814 18.2786L41.232 4.3286L27.4795 0.486512L22.6434 5.29315L17.8833 0.407715ZM9.40833 6.69632L16.6833 4.78999L19.8647 8.0558L15.2251 12.6659L9.40833 6.69632ZM25.3786 8.09948L28.6111 4.88777L35.8548 6.91183L29.9431 12.7856L25.3786 8.09948ZM4.62539 16.7729L6.6295 9.45806L12.4444 15.4277L7.8058 20.0378L4.62539 16.7729ZM32.6763 15.5929L38.5881 9.7172L40.4735 17.0653L37.2419 20.278L32.6763 15.5929ZM17.9592 15.4723L22.5988 10.8621L27.1624 15.5482L22.5238 20.1583L17.9592 15.4723ZM10.5409 22.8441L15.1795 18.234L19.7459 22.9201L15.1054 27.5302L10.5409 22.8441ZM25.259 22.9647L29.8976 18.3545L34.4621 23.0406L29.8225 27.6507L25.259 22.9647ZM4.52855 28.8195L7.76213 25.6058L12.3257 30.2929L6.41589 36.1656L4.52855 28.8195ZM17.8396 30.3365L22.4792 25.7264L27.0438 30.4125L22.4052 35.0226L17.8396 30.3365ZM32.5567 30.4581L37.1963 25.8479L40.3776 29.1128L38.3744 36.4277L32.5567 30.4581ZM9.14911 38.9739L15.0599 33.0982L19.6263 37.7843L16.3928 40.9979L9.14911 38.9739ZM25.1393 37.8289L29.778 33.2188L35.5938 39.1893L28.3197 41.0948L25.1393 37.8289Z" fill="black"/>
</svg>
