<svg width="185" height="42" viewBox="0 0 185 42" fill="none" xmlns="http://www.w3.org/2000/svg">
<g clip-path="url(#clip0_2122_172)">
<path d="M114.995 26.3945L101.342 8.60517H97.938V32.4518H101.388V14.1771L115.43 32.4518H118.445V8.60517H114.995V26.3945ZM80.6124 21.9705H92.8505V18.8718H80.6032V11.6945H94.4137V8.59584H77.0882V32.4518H94.5895V29.3531H80.6032L80.6124 21.9705ZM66.2195 18.9465C61.4557 17.7891 60.1237 16.8745 60.1237 14.6531C60.1237 12.6558 61.872 11.3025 64.4805 11.3025C66.8559 11.3727 69.1472 12.2065 71.0202 13.6825L72.8702 11.0411C70.499 9.16563 67.5574 8.17626 64.5452 8.24117C59.8647 8.24117 56.5995 11.0411 56.5995 15.0265C56.5995 19.3198 59.3744 20.8038 64.4249 22.0451C68.9204 23.0905 70.2987 24.0611 70.2987 26.2358C70.2987 28.4105 68.4487 29.7545 65.5904 29.7545C62.7449 29.7413 60.0068 28.6562 57.9129 26.7118L55.8317 29.2225C58.5136 31.5477 61.9343 32.8229 65.4702 32.8158C70.5392 32.8158 73.7952 30.0625 73.7952 25.8065C73.7675 22.2038 71.6584 20.2718 66.2195 18.9465ZM181.021 8.60517L173.908 19.8051L166.841 8.60517H162.716L172.049 23.0251V32.4611H175.601V22.9131L184.999 8.60517H181.021ZM121.239 11.8345H128.981V32.4611H132.533V11.8345H140.275V8.60517H121.248L121.239 11.8345ZM156.703 23.1465C160.274 22.1478 162.253 19.6278 162.253 16.0251C162.253 11.4425 158.932 8.55851 153.577 8.55851H143.069V32.4425H146.584V23.8745H152.55L158.544 32.4611H162.651L156.176 23.2958L156.703 23.1465ZM146.574 20.8131V11.7598H153.207C156.666 11.7598 158.646 13.4118 158.646 16.2771C158.646 19.1425 156.527 20.8131 153.244 20.8131H146.574ZM26.8237 2.10917C26.4394 1.46567 25.8968 0.933306 25.2485 0.563753C24.6002 0.194199 23.8682 0 23.1237 0C22.3791 0 21.6471 0.194199 20.9989 0.563753C20.3505 0.933306 19.8079 1.46567 19.4237 2.10917L13.3372 12.6278C17.987 14.9702 21.9487 18.4991 24.8289 22.8641C27.7092 27.2291 29.4077 32.2783 29.756 37.5105H25.4825C25.1348 33.0255 23.6326 28.7099 21.1245 24.9907C18.6163 21.2714 15.189 18.2776 11.182 16.3051L5.54867 26.1331C7.80135 27.1525 9.76383 28.7271 11.2558 30.7119C12.7477 32.6967 13.7211 35.0282 14.0864 37.4918H4.27217C4.15577 37.4835 4.04326 37.4461 3.94477 37.383C3.84628 37.3199 3.76492 37.233 3.70802 37.1301C3.65112 37.0274 3.62047 36.9119 3.61884 36.7942C3.61721 36.6765 3.64464 36.5602 3.69867 36.4558L6.41817 31.7891C5.49681 31.0135 4.44381 30.4128 3.31017 30.0158L0.618417 34.6825C0.338193 35.1675 0.156274 35.7038 0.0832263 36.2604C0.0101793 36.8169 0.0474615 37.3825 0.192907 37.9244C0.338352 38.4662 0.589062 38.9736 0.930471 39.4168C1.27188 39.8601 1.69718 40.2305 2.18167 40.5065C2.82001 40.8695 3.53949 41.0622 4.27217 41.0665H17.7125C17.962 37.9586 17.412 34.8383 16.1155 32.0077C14.8191 29.1773 12.8201 26.7326 10.3124 24.9105L12.4492 21.1771C15.614 23.3705 18.1573 26.3585 19.8281 29.8464C21.4989 33.3344 22.2395 37.2016 21.9767 41.0665H33.3634C33.6286 35.2117 32.3662 29.3892 29.7026 24.1809C27.0389 18.9725 23.0671 14.5607 18.1842 11.3865L22.504 3.91984C22.6001 3.75711 22.7562 3.63934 22.9381 3.59214C23.12 3.54494 23.313 3.57216 23.4752 3.66784C23.9655 3.93851 42.2435 36.1198 42.5857 36.4931C42.6459 36.6023 42.6766 36.7255 42.6746 36.8503C42.6726 36.9752 42.6379 37.0974 42.574 37.2044C42.5102 37.3114 42.4195 37.3995 42.3111 37.4599C42.2027 37.5202 42.0805 37.5505 41.9567 37.5478H37.5537C37.6092 38.7363 37.6092 39.9217 37.5537 41.1038H41.9752C42.5366 41.1075 43.0932 40.9989 43.6127 40.7841C44.1323 40.5693 44.6044 40.2526 45.0019 39.8525C45.3994 39.4523 45.7141 38.9766 45.9282 38.4529C46.1422 37.9291 46.2511 37.3677 46.2487 36.8011C46.2493 36.0529 46.0512 35.3182 45.6752 34.6731L26.8237 2.10917Z" fill="black"/>
</g>
<defs>
<clipPath id="clip0_2122_172">
<rect width="185" height="42" fill="white"/>
</clipPath>
</defs>
</svg>
